<?xml version="1.0" encoding="UTF-8"?>
<svg width="32px" height="32px" viewBox="0 0 32 32" version="1.1" xmlns="http://www.w3.org/2000/svg">
    <title>Maestro Quiz Favicon</title>
    <g id="Favicon" stroke="none" stroke-width="1" fill="none" fill-rule="evenodd">
        <circle id="Background" fill="#14102C" cx="16" cy="16" r="16"></circle>
        <path d="M16,6 C17.1045695,6 18,6.8954305 18,8 L18,24 C18,25.1045695 17.1045695,26 16,26 C14.8954305,26 14,25.1045695 14,24 L14,8 C14,6.8954305 14.8954305,6 16,6 Z" id="Note-Stem" fill="#FFFFFF"></path>
        <ellipse id="Note-Head" fill="#FFFFFF" cx="12" cy="24" rx="6" ry="4"></ellipse>
        <path d="M22,10 C23.1045695,10 24,10.8954305 24,12 L24,20 C24,21.1045695 23.1045695,22 22,22 C20.8954305,22 20,21.1045695 20,20 L20,12 C20,10.8954305 20.8954305,10 22,10 Z" id="Note-Stem-2" fill="#B48EE6"></path>
        <ellipse id="Note-Head-2" fill="#B48EE6" cx="26" cy="12" rx="4" ry="3"></ellipse>
    </g>
</svg>
